<svg id="visual" viewBox="0 0 900 450" width="900" height="450" xmlns="http://www.w3.org/2000/svg" xmlns:xlink="http://www.w3.org/1999/xlink" version="1.1"><rect width="900" height="450" fill="#005b99"></rect><g><g transform="translate(288 351)"><path d="M0 -25.4L22 -12.7L22 12.7L0 25.4L-22 12.7L-22 -12.7Z" fill="#f2f9ff"></path></g><g transform="translate(666 150)"><path d="M0 -13L11.3 -6.5L11.3 6.5L0 13L-11.3 6.5L-11.3 -6.5Z" fill="#f2f9ff"></path></g><g transform="translate(595 139)"><path d="M0 -24L20.8 -12L20.8 12L0 24L-20.8 12L-20.8 -12Z" fill="#f2f9ff"></path></g><g transform="translate(407 48)"><path d="M0 -14L12.1 -7L12.1 7L0 14L-12.1 7L-12.1 -7Z" fill="#f2f9ff"></path></g><g transform="translate(636 215)"><path d="M0 -21L18.2 -10.5L18.2 10.5L0 21L-18.2 10.5L-18.2 -10.5Z" fill="#f2f9ff"></path></g><g transform="translate(224 162)"><path d="M0 -5L4.3 -2.5L4.3 2.5L0 5L-4.3 2.5L-4.3 -2.5Z" fill="#f2f9ff"></path></g><g transform="translate(342 416)"><path d="M0 -8L6.9 -4L6.9 4L0 8L-6.9 4L-6.9 -4Z" fill="#f2f9ff"></path></g><g transform="translate(294 192)"><path d="M0 -6L5.2 -3L5.2 3L0 6L-5.2 3L-5.2 -3Z" fill="#f2f9ff"></path></g><g transform="translate(257 123)"><path d="M0 -16L13.9 -8L13.9 8L0 16L-13.9 8L-13.9 -8Z" fill="#f2f9ff"></path></g><g transform="translate(423 437)"><path d="M0 -8L6.9 -4L6.9 4L0 8L-6.9 4L-6.9 -4Z" fill="#f2f9ff"></path></g><g transform="translate(488 360)"><path d="M0 -14L12.1 -7L12.1 7L0 14L-12.1 7L-12.1 -7Z" fill="#f2f9ff"></path></g><g transform="translate(496 84)"><path d="M0 -20L17.3 -10L17.3 10L0 20L-17.3 10L-17.3 -10Z" fill="#f2f9ff"></path></g><g transform="translate(34 162)"><path d="M0 -17L14.7 -8.5L14.7 8.5L0 17L-14.7 8.5L-14.7 -8.5Z" fill="#f2f9ff"></path></g><g transform="translate(830 272)"><path d="M0 -4L3.5 -2L3.5 2L0 4L-3.5 2L-3.5 -2Z" fill="#f2f9ff"></path></g><g transform="translate(235 46)"><path d="M0 -13L11.3 -6.5L11.3 6.5L0 13L-11.3 6.5L-11.3 -6.5Z" fill="#f2f9ff"></path></g><g transform="translate(761 9)"><path d="M0 -5L4.3 -2.5L4.3 2.5L0 5L-4.3 2.5L-4.3 -2.5Z" fill="#f2f9ff"></path></g><g transform="translate(137 211)"><path d="M0 -15L13 -7.5L13 7.5L0 15L-13 7.5L-13 -7.5Z" fill="#f2f9ff"></path></g><g transform="translate(325 65)"><path d="M0 -5L4.3 -2.5L4.3 2.5L0 5L-4.3 2.5L-4.3 -2.5Z" fill="#f2f9ff"></path></g><g transform="translate(744 247)"><path d="M0 -20L17.3 -10L17.3 10L0 20L-17.3 10L-17.3 -10Z" fill="#f2f9ff"></path></g><g transform="translate(99 443)"><path d="M0 -11L9.5 -5.5L9.5 5.5L0 11L-9.5 5.5L-9.5 -5.5Z" fill="#f2f9ff"></path></g><g transform="translate(201 260)"><path d="M0 -9L7.8 -4.5L7.8 4.5L0 9L-7.8 4.5L-7.8 -4.5Z" fill="#f2f9ff"></path></g><g transform="translate(419 247)"><path d="M0 -3L2.6 -1.5L2.6 1.5L0 3L-2.6 1.5L-2.6 -1.5Z" fill="#f2f9ff"></path></g><g transform="translate(150 287)"><path d="M0 -24L20.8 -12L20.8 12L0 24L-20.8 12L-20.8 -12Z" fill="#f2f9ff"></path></g><g transform="translate(347 135)"><path d="M0 -22L19.1 -11L19.1 11L0 22L-19.1 11L-19.1 -11Z" fill="#f2f9ff"></path></g><g transform="translate(542 380)"><path d="M0 -10L8.7 -5L8.7 5L0 10L-8.7 5L-8.7 -5Z" fill="#f2f9ff"></path></g><g transform="translate(459 309)"><path d="M0 -7L6.1 -3.5L6.1 3.5L0 7L-6.1 3.5L-6.1 -3.5Z" fill="#f2f9ff"></path></g><g transform="translate(413 168)"><path d="M0 -20L17.3 -10L17.3 10L0 20L-17.3 10L-17.3 -10Z" fill="#f2f9ff"></path></g><g transform="translate(826 327)"><path d="M0 -15L13 -7.5L13 7.5L0 15L-13 7.5L-13 -7.5Z" fill="#f2f9ff"></path></g><g transform="translate(240 394)"><path d="M0 -15L13 -7.5L13 7.5L0 15L-13 7.5L-13 -7.5Z" fill="#f2f9ff"></path></g><g transform="translate(741 302)"><path d="M0 -8L6.9 -4L6.9 4L0 8L-6.9 4L-6.9 -4Z" fill="#f2f9ff"></path></g><g transform="translate(852 112)"><path d="M0 -3L2.6 -1.5L2.6 1.5L0 3L-2.6 1.5L-2.6 -1.5Z" fill="#f2f9ff"></path></g><g transform="translate(490 5)"><path d="M0 -7L6.1 -3.5L6.1 3.5L0 7L-6.1 3.5L-6.1 -3.5Z" fill="#f2f9ff"></path></g><g transform="translate(677 34)"><path d="M0 -14L12.1 -7L12.1 7L0 14L-12.1 7L-12.1 -7Z" fill="#f2f9ff"></path></g><g transform="translate(659 347)"><path d="M0 -11L9.5 -5.5L9.5 5.5L0 11L-9.5 5.5L-9.5 -5.5Z" fill="#f2f9ff"></path></g><g transform="translate(544 448)"><path d="M0 -21L18.2 -10.5L18.2 10.5L0 21L-18.2 10.5L-18.2 -10.5Z" fill="#f2f9ff"></path></g><g transform="translate(534 128)"><path d="M0 -20L17.3 -10L17.3 10L0 20L-17.3 10L-17.3 -10Z" fill="#f2f9ff"></path></g><g transform="translate(526 296)"><path d="M0 -22L19.1 -11L19.1 11L0 22L-19.1 11L-19.1 -11Z" fill="#f2f9ff"></path></g><g transform="translate(3 359)"><path d="M0 -20L17.3 -10L17.3 10L0 20L-17.3 10L-17.3 -10Z" fill="#f2f9ff"></path></g><g transform="translate(6 8)"><path d="M0 -23L19.9 -11.5L19.9 11.5L0 23L-19.9 11.5L-19.9 -11.5Z" fill="#f2f9ff"></path></g><g transform="translate(805 393)"><path d="M0 -5L4.3 -2.5L4.3 2.5L0 5L-4.3 2.5L-4.3 -2.5Z" fill="#f2f9ff"></path></g><g transform="translate(43 307)"><path d="M0 -5L4.3 -2.5L4.3 2.5L0 5L-4.3 2.5L-4.3 -2.5Z" fill="#f2f9ff"></path></g><g transform="translate(699 205)"><path d="M0 -9L7.8 -4.5L7.8 4.5L0 9L-7.8 4.5L-7.8 -4.5Z" fill="#f2f9ff"></path></g><g transform="translate(886 374)"><path d="M0 -3L2.6 -1.5L2.6 1.5L0 3L-2.6 1.5L-2.6 -1.5Z" fill="#f2f9ff"></path></g><g transform="translate(856 26)"><path d="M0 -21L18.2 -10.5L18.2 10.5L0 21L-18.2 10.5L-18.2 -10.5Z" fill="#f2f9ff"></path></g><g transform="translate(78 39)"><path d="M0 -17L14.7 -8.5L14.7 8.5L0 17L-14.7 8.5L-14.7 -8.5Z" fill="#f2f9ff"></path></g><g transform="translate(857 438)"><path d="M0 -20L17.3 -10L17.3 10L0 20L-17.3 10L-17.3 -10Z" fill="#f2f9ff"></path></g><g transform="translate(560 30)"><path d="M0 -13L11.3 -6.5L11.3 6.5L0 13L-11.3 6.5L-11.3 -6.5Z" fill="#f2f9ff"></path></g><g transform="translate(132 402)"><path d="M0 -5L4.3 -2.5L4.3 2.5L0 5L-4.3 2.5L-4.3 -2.5Z" fill="#f2f9ff"></path></g><g transform="translate(458 125)"><path d="M0 -21L18.2 -10.5L18.2 10.5L0 21L-18.2 10.5L-18.2 -10.5Z" fill="#f2f9ff"></path></g><g transform="translate(472 226)"><path d="M0 -15L13 -7.5L13 7.5L0 15L-13 7.5L-13 -7.5Z" fill="#f2f9ff"></path></g><g transform="translate(825 220)"><path d="M0 -24L20.8 -12L20.8 12L0 24L-20.8 12L-20.8 -12Z" fill="#f2f9ff"></path></g><g transform="translate(352 5)"><path d="M0 -22L19.1 -11L19.1 11L0 22L-19.1 11L-19.1 -11Z" fill="#f2f9ff"></path></g><g transform="translate(604 262)"><path d="M0 -19L16.5 -9.5L16.5 9.5L0 19L-16.5 9.5L-16.5 -9.5Z" fill="#f2f9ff"></path></g><g transform="translate(144 347)"><path d="M0 -13L11.3 -6.5L11.3 6.5L0 13L-11.3 6.5L-11.3 -6.5Z" fill="#f2f9ff"></path></g><g transform="translate(8 113)"><path d="M0 -6L5.2 -3L5.2 3L0 6L-5.2 3L-5.2 -3Z" fill="#f2f9ff"></path></g><g transform="translate(777 167)"><path d="M0 -15L13 -7.5L13 7.5L0 15L-13 7.5L-13 -7.5Z" fill="#f2f9ff"></path></g><g transform="translate(540 191)"><path d="M0 -20L17.3 -10L17.3 10L0 20L-17.3 10L-17.3 -10Z" fill="#f2f9ff"></path></g><g transform="translate(776 82)"><path d="M0 -12L10.4 -6L10.4 6L0 12L-10.4 6L-10.4 -6Z" fill="#f2f9ff"></path></g><g transform="translate(491 426)"><path d="M0 -16L13.9 -8L13.9 8L0 16L-13.9 8L-13.9 -8Z" fill="#f2f9ff"></path></g><g transform="translate(12 251)"><path d="M0 -24L20.8 -12L20.8 12L0 24L-20.8 12L-20.8 -12Z" fill="#f2f9ff"></path></g><g transform="translate(384 316)"><path d="M0 -13L11.3 -6.5L11.3 6.5L0 13L-11.3 6.5L-11.3 -6.5Z" fill="#f2f9ff"></path></g><g transform="translate(721 362)"><path d="M0 -5L4.3 -2.5L4.3 2.5L0 5L-4.3 2.5L-4.3 -2.5Z" fill="#f2f9ff"></path></g><g transform="translate(297 277)"><path d="M0 -9L7.8 -4.5L7.8 4.5L0 9L-7.8 4.5L-7.8 -4.5Z" fill="#f2f9ff"></path></g><g transform="translate(335 232)"><path d="M0 -5L4.3 -2.5L4.3 2.5L0 5L-4.3 2.5L-4.3 -2.5Z" fill="#f2f9ff"></path></g><g transform="translate(163 29)"><path d="M0 -22L19.1 -11L19.1 11L0 22L-19.1 11L-19.1 -11Z" fill="#f2f9ff"></path></g><g transform="translate(220 310)"><path d="M0 -8L6.9 -4L6.9 4L0 8L-6.9 4L-6.9 -4Z" fill="#f2f9ff"></path></g><g transform="translate(285 431)"><path d="M0 -11L9.5 -5.5L9.5 5.5L0 11L-9.5 5.5L-9.5 -5.5Z" fill="#f2f9ff"></path></g><g transform="translate(888 257)"><path d="M0 -15L13 -7.5L13 7.5L0 15L-13 7.5L-13 -7.5Z" fill="#f2f9ff"></path></g><g transform="translate(185 78)"><path d="M0 -22L19.1 -11L19.1 11L0 22L-19.1 11L-19.1 -11Z" fill="#f2f9ff"></path></g><g transform="translate(126 64)"><path d="M0 -12L10.4 -6L10.4 6L0 12L-10.4 6L-10.4 -6Z" fill="#f2f9ff"></path></g><g transform="translate(654 277)"><path d="M0 -19L16.5 -9.5L16.5 9.5L0 19L-16.5 9.5L-16.5 -9.5Z" fill="#f2f9ff"></path></g><g transform="translate(57 376)"><path d="M0 -7L6.1 -3.5L6.1 3.5L0 7L-6.1 3.5L-6.1 -3.5Z" fill="#f2f9ff"></path></g><g transform="translate(712 414)"><path d="M0 -3L2.6 -1.5L2.6 1.5L0 3L-2.6 1.5L-2.6 -1.5Z" fill="#f2f9ff"></path></g><g transform="translate(283 26)"><path d="M0 -18L15.6 -9L15.6 9L0 18L-15.6 9L-15.6 -9Z" fill="#f2f9ff"></path></g><g transform="translate(609 59)"><path d="M0 -9L7.8 -4.5L7.8 4.5L0 9L-7.8 4.5L-7.8 -4.5Z" fill="#f2f9ff"></path></g><g transform="translate(70 108)"><path d="M0 -14L12.1 -7L12.1 7L0 14L-12.1 7L-12.1 -7Z" fill="#f2f9ff"></path></g><g transform="translate(636 409)"><path d="M0 -5L4.3 -2.5L4.3 2.5L0 5L-4.3 2.5L-4.3 -2.5Z" fill="#f2f9ff"></path></g><g transform="translate(600 446)"><path d="M0 -9L7.8 -4.5L7.8 4.5L0 9L-7.8 4.5L-7.8 -4.5Z" fill="#f2f9ff"></path></g><g transform="translate(669 94)"><path d="M0 -9L7.8 -4.5L7.8 4.5L0 9L-7.8 4.5L-7.8 -4.5Z" fill="#f2f9ff"></path></g><g transform="translate(884 318)"><path d="M0 -6L5.2 -3L5.2 3L0 6L-5.2 3L-5.2 -3Z" fill="#f2f9ff"></path></g><g transform="translate(728 101)"><path d="M0 -12L10.4 -6L10.4 6L0 12L-10.4 6L-10.4 -6Z" fill="#f2f9ff"></path></g><g transform="translate(883 201)"><path d="M0 -11L9.5 -5.5L9.5 5.5L0 11L-9.5 5.5L-9.5 -5.5Z" fill="#f2f9ff"></path></g><g transform="translate(27 426)"><path d="M0 -17L14.7 -8.5L14.7 8.5L0 17L-14.7 8.5L-14.7 -8.5Z" fill="#f2f9ff"></path></g><g transform="translate(54 210)"><path d="M0 -23L19.9 -11.5L19.9 11.5L0 23L-19.9 11.5L-19.9 -11.5Z" fill="#f2f9ff"></path></g><g transform="translate(174 136)"><path d="M0 -14L12.1 -7L12.1 7L0 14L-12.1 7L-12.1 -7Z" fill="#f2f9ff"></path></g><g transform="translate(593 355)"><path d="M0 -6L5.2 -3L5.2 3L0 6L-5.2 3L-5.2 -3Z" fill="#f2f9ff"></path></g><g transform="translate(86 257)"><path d="M0 -20L17.3 -10L17.3 10L0 20L-17.3 10L-17.3 -10Z" fill="#f2f9ff"></path></g><g transform="translate(434 357)"><path d="M0 -15L13 -7.5L13 7.5L0 15L-13 7.5L-13 -7.5Z" fill="#f2f9ff"></path></g><g transform="translate(201 448)"><path d="M0 -4L3.5 -2L3.5 2L0 4L-3.5 2L-3.5 -2Z" fill="#f2f9ff"></path></g><g transform="translate(101 175)"><path d="M0 -19L16.5 -9.5L16.5 9.5L0 19L-16.5 9.5L-16.5 -9.5Z" fill="#f2f9ff"></path></g><g transform="translate(99 318)"><path d="M0 -7L6.1 -3.5L6.1 3.5L0 7L-6.1 3.5L-6.1 -3.5Z" fill="#f2f9ff"></path></g><g transform="translate(239 214)"><path d="M0 -5L4.3 -2.5L4.3 2.5L0 5L-4.3 2.5L-4.3 -2.5Z" fill="#f2f9ff"></path></g><g transform="translate(187 199)"><path d="M0 -5L4.3 -2.5L4.3 2.5L0 5L-4.3 2.5L-4.3 -2.5Z" fill="#f2f9ff"></path></g><g transform="translate(895 143)"><path d="M0 -14L12.1 -7L12.1 7L0 14L-12.1 7L-12.1 -7Z" fill="#f2f9ff"></path></g><g transform="translate(183 398)"><path d="M0 -24L20.8 -12L20.8 12L0 24L-20.8 12L-20.8 -12Z" fill="#f2f9ff"></path></g><g transform="translate(347 356)"><path d="M0 -23L19.9 -11.5L19.9 11.5L0 23L-19.9 11.5L-19.9 -11.5Z" fill="#f2f9ff"></path></g><g transform="translate(885 70)"><path d="M0 -23L19.9 -11.5L19.9 11.5L0 23L-19.9 11.5L-19.9 -11.5Z" fill="#f2f9ff"></path></g><g transform="translate(785 442)"><path d="M0 -9L7.8 -4.5L7.8 4.5L0 9L-7.8 4.5L-7.8 -4.5Z" fill="#f2f9ff"></path></g><g transform="translate(29 66)"><path d="M0 -21L18.2 -10.5L18.2 10.5L0 21L-18.2 10.5L-18.2 -10.5Z" fill="#f2f9ff"></path></g><g transform="translate(772 346)"><path d="M0 -4L3.5 -2L3.5 2L0 4L-3.5 2L-3.5 -2Z" fill="#f2f9ff"></path></g><g transform="translate(828 157)"><path d="M0 -12L10.4 -6L10.4 6L0 12L-10.4 6L-10.4 -6Z" fill="#f2f9ff"></path></g><g transform="translate(370 88)"><path d="M0 -17L14.7 -8.5L14.7 8.5L0 17L-14.7 8.5L-14.7 -8.5Z" fill="#f2f9ff"></path></g><g transform="translate(720 157)"><path d="M0 -24L20.8 -12L20.8 12L0 24L-20.8 12L-20.8 -12Z" fill="#f2f9ff"></path></g><g transform="translate(207 2)"><path d="M0 -17L14.7 -8.5L14.7 8.5L0 17L-14.7 8.5L-14.7 -8.5Z" fill="#f2f9ff"></path></g><g transform="translate(612 7)"><path d="M0 -17L14.7 -8.5L14.7 8.5L0 17L-14.7 8.5L-14.7 -8.5Z" fill="#f2f9ff"></path></g><g transform="translate(395 392)"><path d="M0 -19L16.5 -9.5L16.5 9.5L0 19L-16.5 9.5L-16.5 -9.5Z" fill="#f2f9ff"></path></g><g transform="translate(436 2)"><path d="M0 -19L16.5 -9.5L16.5 9.5L0 19L-16.5 9.5L-16.5 -9.5Z" fill="#f2f9ff"></path></g><g transform="translate(122 117)"><path d="M0 -18L15.6 -9L15.6 9L0 18L-15.6 9L-15.6 -9Z" fill="#f2f9ff"></path></g><g transform="translate(536 243)"><path d="M0 -24L20.8 -12L20.8 12L0 24L-20.8 12L-20.8 -12Z" fill="#f2f9ff"></path></g><g transform="translate(825 68)"><path d="M0 -4L3.5 -2L3.5 2L0 4L-3.5 2L-3.5 -2Z" fill="#f2f9ff"></path></g></g></svg>